<svg id="Layer_1" data-name="Layer 1" xmlns="http://www.w3.org/2000/svg" viewBox="0 0 240.17 240.16"><defs><style>.cls-1{fill:#43778d;}.cls-2{fill:#fcfdfc;}.cls-3{fill:#fbfcfd;}.cls-4{fill:#fbfdfc;}.cls-5{fill:#fafdfc;}.cls-6{fill:#f8fdfc;}.cls-7{fill:#fafcfc;}.cls-8{fill:#f9fcfc;}.cls-9{fill:#44778d;}.cls-10{fill:#fcfefc;}</style></defs><title>Untitled-1</title><path class="cls-1" d="M760,640.5c0,38.67,0,77.33.08,116,0,3-.6,3.59-3.58,3.58q-116.5-.15-233,0c-3,0-3.59-.6-3.58-3.58q.15-116.5,0-233c0-3,.6-3.59,3.58-3.58q116.5.15,233,0c3,0,3.59.6,3.58,3.58C760,562.5,760,601.5,760,640.5Z" transform="translate(-519.92 -519.92)"/><path class="cls-2" d="M714.92,669.92c0,.67.11,1.34.11,2,0,4,1.26,8.85-.54,11.76-2.07,3.33-7.31,1.16-11.14,1.26-3.25.08-3.34,1.73-3.33,4.13.06,12-.11,24,.11,36,.07,3.78-.75,5.19-4.88,5.1-10.13-.21-10.33,0-10.13,9.93.08,3.9-1,5-5,5q-55.24-.23-110.49,0c-3.77,0-4.79-1-4.73-4.76.17-10.1,0-10.3-10.37-10.2-3.91,0-4.6-1.34-4.59-4.91q.18-62.73,0-125.48c0-3.62.76-4.82,4.62-4.81q70.5.21,141,0c3.43,0,4.67.85,4.54,4.43-.26,7.32,0,14.66-.14,22-.06,2.85.89,3.71,3.7,3.72,3.6,0,8.28-1.68,10.54.83s.56,7.33.8,11.12a24.91,24.91,0,0,1-.11,3l-.33.68c-1.82,1.91-4.26,1.59-6.53,1.77-3.59.29-5.41,2.21-5.52,5.77-.14,4.31-.07,8.62,0,12.94,0,4,2,6.14,6,6.31,2.13.09,4.37,0,6.05,1.72Z" transform="translate(-519.92 -519.92)"/><path class="cls-3" d="M580.06,564.94c-4.78,0-10.9,2-14-.72s-.79-9.08-1-13.82c-.18-4.14,0-8.29-.05-12.44,0-2.11.75-3,2.91-2.94a82.32,82.32,0,0,0,8.46,0c2.82-.19,3.75.88,3.69,3.69-.18,8.79-.13,17.59-.17,26.38Z" transform="translate(-519.92 -519.92)"/><path class="cls-4" d="M625,565c-3.81,0-7.63-.11-11.44,0-2.51.1-3.57-.66-3.52-3.35.14-7.79.1-15.59,0-23.39,0-2.24.57-3.53,3-3.25a8.34,8.34,0,0,0,1,0c11-.33,11-.33,11,10.71,0,6.47-.14,12.93-.22,19.39Z" transform="translate(-519.92 -519.92)"/><path class="cls-5" d="M670.06,564.93c-4.77,0-10.87,2-14-.74s-.8-9.08-1-13.82c-.19-4.13,0-8.29-.06-12.43,0-2.15.8-3,2.93-2.91a79.39,79.39,0,0,0,8.45,0c2.82-.2,3.77.84,3.71,3.66-.18,8.79-.14,17.58-.18,26.37Z" transform="translate(-519.92 -519.92)"/><path class="cls-4" d="M714.92,640.06c4.9.31,11.24-2.09,14.31,1,2.83,2.89.59,9.16.82,13.94a4.17,4.17,0,0,1,0,.5c-.43,4.72,2.16,11-1.13,13.76-3.13,2.65-9.21.71-14,.63l.15.15a6.51,6.51,0,0,1-2.38-5.2q-.37-9.87,0-19.74a6.51,6.51,0,0,1,2.38-5.2Z" transform="translate(-519.92 -519.92)"/><path class="cls-6" d="M579.93,565.08c1.49,0,3-.05,4.48-.05,11.84,0,12.28.1,10.44,12.13-1,6.41-6.81,1.68-10.26,2.76-1.91.6-4.83.92-4.6-3s.06-8,.07-11.95Z" transform="translate(-519.92 -519.92)"/><path class="cls-7" d="M624.81,565.17c3.83,0,7.66,0,11.48-.17,2.7-.14,3.91.63,3.8,3.58-.53,14.15,2.8,11.06-11.78,11.51-2.77.08-3.38-1.16-3.31-3.58.11-3.82,0-7.65,0-11.48Z" transform="translate(-519.92 -519.92)"/><path class="cls-8" d="M669.93,565.06l4.49,0c11.42,0,12.42,1.13,10.6,12.63,0,.17.06.39,0,.49-3.41,4-7.92,1-11.85,1.86-2.3.48-3.23-.79-3.15-3.13.13-4,0-8,.06-12Z" transform="translate(-519.92 -519.92)"/><path class="cls-1" d="M625.25,610.05c18.32,0,36.63.08,55-.07,3.46,0,5,.51,4.94,4.53q-.24,48.21,0,96.41c0,3.31-1,4.18-4.26,4.19-10.53,0-10.68.18-10.72,10.89,0,3.42-1.23,4.1-4.35,4.09q-40.71-.17-81.42,0c-3.59,0-4.43-1.12-4.4-4.53.08-10.27-.07-10.39-10.68-10.47-3.14,0-4.34-.75-4.32-4.15q.16-48.45,0-96.9c0-3.44,1.19-4.09,4.33-4.07C588,610.12,606.6,610.06,625.25,610.05Z" transform="translate(-519.92 -519.92)"/><path class="cls-9" d="M715.07,639.93v30.14c-.17,0-.33,0-.5,0-4.7-.49-11,2.15-13.7-1.11-2.31-2.78-.8-8.82-.8-13.42,0-4.93-1.62-11.32.83-14.4C703.5,637.86,710.2,640.52,715.07,639.93Z" transform="translate(-519.92 -519.92)"/><path class="cls-10" d="M595,655.22c0,8.49.11,17-.07,25.48-.06,3,.53,4.49,4,4.45s8.32-1.81,10.41,1c1.71,2.28.7,6.73.58,10.21-.09,2.76.75,4,3.66,3.74a43.71,43.71,0,0,1,5,0c7.11.1,6.33-.91,6.39,6.42.06,8.57,0,8.57-8.7,8.58-5.83,0-11.66-.1-17.48,0-2.62.06-4-.48-3.89-3.54.1-3.61,1.59-8.2-.69-10.61s-6.94-.75-10.54-.8c-2.71,0-3.77-.71-3.75-3.65q.16-34,0-67.94c0-2.52.74-3.41,3.39-3.54,11.67-.59,11.67-.68,11.67,10.75C595,642.23,595.05,648.73,595,655.22Z" transform="translate(-519.92 -519.92)"/></svg>