<svg id="Capa_1" enable-background="new 0 0 511.994 511.994" height="512" viewBox="0 0 511.994 511.994" width="512" xmlns="http://www.w3.org/2000/svg"><g><g><path d="m247.327 390.455h113.583c4.142 0 7.501-3.358 7.501-7.5 0-4.143-3.358-7.501-7.501-7.501h-108.765v-35.234h205.608v35.234h-62.244c-4.142 0-7.501 3.358-7.501 7.501 0 4.142 3.358 7.5 7.501 7.5h67.061c5.615 0 10.184-4.569 10.184-10.184v-44.868c0-5.615-4.569-10.184-10.184-10.184h-215.243c-5.616 0-10.184 4.569-10.184 10.184v44.868c.001 5.615 4.569 10.184 10.184 10.184z"/><path d="m244.644 269.115h220.61c4.142 0 7.501-3.358 7.501-7.5s-3.358-7.501-7.501-7.501h-220.61c-4.142 0-7.501 3.358-7.501 7.501s3.359 7.5 7.501 7.5z"/><path d="m244.644 231.739h220.61c4.142 0 7.501-3.358 7.501-7.5s-3.358-7.501-7.501-7.501h-220.61c-4.142 0-7.501 3.358-7.501 7.501s3.359 7.5 7.501 7.5z"/><path d="m244.644 194.362h100.669c4.142 0 7.501-3.358 7.501-7.5s-3.358-7.501-7.501-7.501h-100.669c-4.142 0-7.501 3.358-7.501 7.501s3.359 7.5 7.501 7.5z"/><path d="m54.506 390.455h139.664c8.418 0 15.266-6.848 15.266-15.265v-180.563c0-8.417-6.848-15.266-15.266-15.266h-139.664c-8.418 0-15.266 6.848-15.266 15.266v180.563c0 8.417 6.848 15.265 15.266 15.265zm107.368-15.001h-75.073v-4.674c0-14.002 7.714-26.226 19.109-32.676 3.696 6.354 10.563 10.646 18.427 10.646 7.86 0 14.724-4.287 18.421-10.635 11.395 6.45 19.115 18.663 19.115 32.665v4.674zm-37.536-71.433c-14.082 0-26.025-9.278-30.069-22.039 8.738-2.559 20.365-7.932 30.069-19.233 9.707 11.303 21.338 16.676 30.076 19.235-4.046 12.76-15.994 22.037-30.076 22.037zm6.321 14.555v8.851c0 3.485-2.836 6.321-6.321 6.321s-6.321-2.836-6.321-6.321v-8.851c2.069.282 4.175.445 6.321.445 2.145.001 4.252-.162 6.321-.445zm15.001-4.759c5.565-2.887 10.484-6.851 14.458-11.635v10.025c0 6.016-1.503 11.683-4.14 16.663-3.178-2.405-6.637-4.456-10.318-6.097zm-14.889-67.725c-1.355-2.261-3.797-3.644-6.433-3.644s-5.078 1.383-6.434 3.644c-8.615 14.374-21.278 19.858-29.347 21.946v-12.515c0-6.181 1.199-11.835 3.564-16.807 2.318-4.872 5.624-9.068 9.828-12.475 6.486-5.255 14.437-7.883 22.387-7.883s15.902 2.628 22.388 7.883c4.203 3.405 7.51 7.602 9.827 12.474 2.365 4.971 3.564 10.625 3.564 16.807v12.499c-8.068-2.102-20.754-7.599-29.344-21.929zm-27.755 67.733v8.949c-3.681 1.641-7.14 3.692-10.318 6.098-2.637-4.98-4.14-10.648-4.14-16.664v-9.995c3.975 4.774 8.895 8.731 14.458 11.612zm-48.775-119.198c0-.146.119-.265.265-.265h139.664c.146 0 .265.119.265.265v180.563c0 .146-.119.264-.265.264h-17.295v-4.674c0-11.514-3.729-22.171-10.035-30.838 5.226-7.98 8.279-17.505 8.279-27.735v-56.684c0-8.429-1.689-16.252-5.019-23.252-3.286-6.909-7.973-12.859-13.93-17.685-18.445-14.944-45.219-14.944-63.663 0-5.958 4.826-10.644 10.777-13.931 17.686-3.331 7-5.019 14.824-5.019 23.251v56.684c0 10.23 3.055 19.753 8.282 27.731-6.308 8.667-10.039 19.325-10.039 30.842v4.674h-17.294c-.146 0-.265-.119-.265-.264z"/><path d="m489.977 81.365h-370.063c-4.142 0-7.501 3.358-7.501 7.501 0 4.142 3.358 7.5 7.501 7.5h370.063c3.868 0 7.016 3.147 7.016 7.016v35.806h-481.992v-35.806c0-3.868 3.147-7.016 7.016-7.016h63.269c4.142 0 7.501-3.358 7.501-7.5 0-4.143-3.358-7.501-7.501-7.501h-63.269c-12.14 0-22.017 9.877-22.017 22.017v305.23c0 12.14 9.877 22.017 22.017 22.017h467.96c12.14 0 22.017-9.877 22.017-22.017v-305.23c0-12.14-9.877-22.017-22.017-22.017zm7.016 327.247c0 3.868-3.147 7.016-7.016 7.016h-467.96c-3.868 0-7.016-3.147-7.016-7.016v-254.424h481.992z"/></g></g></svg>