<?xml version="1.0" encoding="iso-8859-1"?>
<!-- Generator: Adobe Illustrator 19.0.0, SVG Export Plug-In . SVG Version: 6.00 Build 0)  -->
<svg version="1.1" id="Capa_1" xmlns="http://www.w3.org/2000/svg" xmlns:xlink="http://www.w3.org/1999/xlink" x="0px" y="0px"
	 viewBox="0 0 512 512" style="enable-background:new 0 0 512 512;" xml:space="preserve">
<g>
	<g>
		<path d="M214.979,202.05c-1.859-1.86-4.439-2.93-7.069-2.93s-5.21,1.07-7.07,2.93c-1.86,1.86-2.93,4.44-2.93,7.07
			s1.069,5.21,2.93,7.07c1.86,1.86,4.44,2.93,7.07,2.93s5.21-1.07,7.069-2.93c1.86-1.86,2.931-4.44,2.931-7.07
			S216.84,203.91,214.979,202.05z"/>
	</g>
</g>
<g>
	<g>
		<path d="M376.226,213.382c-5.901,0-11.456,1.511-16.299,4.164c-4.907-12.782-17.303-21.883-31.792-21.883
			c-6.249,0-12.104,1.7-17.144,4.65c-5.385-11.719-17.227-19.88-30.946-19.88c-5.007,0-9.76,1.095-14.045,3.044V119
			c0-18.772-15.272-34.045-34.045-34.045c-18.773,0-34.045,15.273-34.045,34.045v51c0,5.523,4.478,10,10,10c5.522,0,10-4.477,10-10
			v-51c0-7.745,6.301-14.045,14.045-14.045S246,111.255,246,119v157.776c0,5.523,4.478,10,10,10c5.522,0,10-4.477,10-10v-62.298
			c0-7.745,6.301-14.045,14.045-14.045s14.045,6.3,14.045,14.045v15.23v8.595v38.472c0,5.523,4.478,10,10,10c5.522,0,10-4.477,10-10
			v-38.472v-8.595c0-7.745,6.301-14.045,14.045-14.045c7.745,0,14.046,6.3,14.046,14.045v11.393c0,0.765,0.094,1.506,0.256,2.222
			c-0.163,1.347-0.256,2.715-0.256,4.105v29.349c0,5.523,4.478,10,10,10c5.522,0,10-4.477,10-10v-29.349
			c0-7.745,6.301-14.045,14.045-14.045s14.045,6.3,14.045,14.045v84.38c0,22.485-3.411,44.765-10.14,66.219L368.223,436H333.5
			c-5.522,0-10,4.477-10,10s4.478,10,10,10h43.771v36h-180v-36H251c5.522,0,10-4.477,10-10s-4.478-10-10-10h-38.011l-32.868-44.978
			c-9.201-12.591-15.722-26.662-19.38-41.824l-18.307-75.882c-1.68-6.965,1.614-14.084,8.012-17.311
			c7.478-3.772,16.448-0.954,20.427,6.413l28.239,52.291c2.175,4.028,6.812,6.063,11.249,4.943c4.439-1.123,7.55-5.116,7.55-9.695
			V249c0-5.523-4.478-10-10-10c-5.522,0-10,4.477-10,10v21.395l-9.44-17.48c-9.161-16.964-29.82-23.449-47.033-14.766
			c-14.729,7.43-22.313,23.82-18.444,39.858l18.307,75.882c4.279,17.739,11.908,34.203,22.673,48.934L188.217,436h-0.946
			c-5.522,0-10,4.477-10,10v56c0,5.523,4.478,10,10,10h200c5.522,0,10-4.477,10-10v-56c0-4.888-3.509-8.95-8.143-9.821
			l10.087-32.169c7.336-23.393,11.056-47.686,11.056-72.203v-84.38C410.271,228.655,394.998,213.382,376.226,213.382z"/>
	</g>
</g>
<g>
	<g>
		<path d="M297.069,438.93C295.21,437.07,292.63,436,290,436s-5.21,1.07-7.07,2.93c-1.86,1.86-2.93,4.44-2.93,7.07
			s1.069,5.21,2.93,7.07c1.861,1.86,4.44,2.93,7.07,2.93s5.21-1.07,7.069-2.93c1.86-1.86,2.931-4.44,2.931-7.07
			S298.93,440.79,297.069,438.93z"/>
	</g>
</g>
<g>
	<g>
		<path d="M90,0C40.374,0,0,40.374,0,90s40.374,90,90,90c49.626,0,90-40.374,90-90S139.626,0,90,0z M90,160
			c-38.598,0-70-31.402-70-70c0-38.598,31.402-70,70-70s70,31.402,70,70C160,128.598,128.598,160,90,160z"/>
	</g>
</g>
<g>
	<g>
		<path d="M104.126,89.987l19.027-19.027c3.908-3.905,3.908-10.237,0.002-14.143c-3.906-3.905-10.236-3.905-14.143,0L89.986,75.844
			L70.96,56.818c-3.905-3.905-10.235-3.905-14.143,0c-3.905,3.905-3.905,10.237,0,14.142l19.027,19.027l-19.027,19.027
			c-3.905,3.905-3.905,10.237,0,14.142c1.953,1.953,4.512,2.929,7.071,2.929s5.118-0.977,7.071-2.929l19.026-19.027l19.026,19.027
			c1.953,1.953,4.512,2.929,7.071,2.929c2.559,0,5.118-0.977,7.071-2.929c3.905-3.905,3.905-10.237,0-14.142L104.126,89.987z"/>
	</g>
</g>
<g>
	<g>
		<path d="M468.545,56.504c-3.906-3.904-10.236-3.904-14.143,0l-45.778,45.779l-19.026-19.027c-3.906-3.905-10.236-3.905-14.143,0
			c-3.905,3.905-3.905,10.237,0,14.143l26.098,26.098c1.953,1.952,4.512,2.929,7.071,2.929s5.118-0.977,7.071-2.929l52.85-52.85
			C472.45,66.742,472.45,60.41,468.545,56.504z"/>
	</g>
</g>
<g>
	<g>
		<path d="M422,0c-49.626,0-90,40.374-90,90s40.374,90,90,90c49.626,0,90-40.374,90-90C512,40.374,471.626,0,422,0z M422,160
			c-38.598,0-70-31.402-70-70c0-38.598,31.402-70,70-70c38.598,0,70,31.402,70,70C492,128.598,460.598,160,422,160z"/>
	</g>
</g>
<g>
</g>
<g>
</g>
<g>
</g>
<g>
</g>
<g>
</g>
<g>
</g>
<g>
</g>
<g>
</g>
<g>
</g>
<g>
</g>
<g>
</g>
<g>
</g>
<g>
</g>
<g>
</g>
<g>
</g>
</svg>
